# Blender v3.0.0 OBJ File: ''
# www.blender.org
mtllib Arrow.mtl
o Cube
v -0.082072 0.161552 -2.329713
v -0.193102 -0.212463 2.438071
v -0.990856 -0.212463 -0.966815
v -0.246626 -0.212463 2.871206
v -0.500328 0.001141 -1.177968
v -0.039343 -0.128882 -1.070668
v -0.082072 0.270344 -2.329713
v -0.082072 -0.032571 2.438071
v -0.990856 -0.103267 -0.966815
v -0.246626 -0.158016 2.871206
v -0.500328 0.525012 -1.177968
v -0.039343 0.730008 -1.070668
v 0.082072 0.161552 -2.329713
v 0.193102 -0.212463 2.438071
v 0.990856 -0.212463 -0.966815
v 0.246626 -0.212463 2.871206
v 0.500328 0.001141 -1.177968
v 0.039343 -0.128882 -1.070668
v 0.082072 0.270344 -2.329713
v 0.082072 -0.032571 2.438071
v 0.990856 -0.103267 -0.966815
v 0.246626 -0.158016 2.871206
v 0.500328 0.525012 -1.177968
v 0.039343 0.730008 -1.070668
vt 0.000000 0.000000
vt 0.000000 0.000000
vt 0.000000 0.000000
vt 0.000000 0.000000
vt 0.000000 0.000000
vt 0.000000 0.000000
vt 0.000000 0.000000
vt 0.000000 0.000000
vt 0.000000 0.000000
vt 0.000000 0.000000
vt 0.000000 0.000000
vt 0.000000 0.000000
vt 0.000000 0.000000
vt 0.000000 0.000000
vt 0.000000 0.000000
vt 0.000000 0.000000
vt 0.000000 0.000000
vt 0.000000 0.000000
vt 0.000000 0.000000
vt 0.000000 0.000000
vt 0.000000 0.000000
vt 0.000000 0.000000
vt 0.000000 0.000000
vt 0.000000 0.000000
vn 0.2192 0.9523 0.2122
vn 0.2724 0.9616 0.0337
vn 0.2638 0.9639 0.0345
vn -0.4065 0.9134 -0.0204
vn 0.3235 -0.8923 0.3148
vn 0.2595 -0.9495 -0.1764
vn 0.4351 -0.8809 -0.1862
vn 0.7845 -0.4810 0.3913
vn -0.3954 0.0000 -0.9185
vn 0.8320 0.0000 0.5548
vn 0.9980 0.0000 -0.0625
vn -0.9942 0.1063 -0.0150
vn -0.8916 0.4224 -0.1633
vn -0.9994 0.0000 0.0339
vn -0.2192 0.9523 0.2122
vn -0.2724 0.9616 0.0337
vn -0.2638 0.9639 0.0345
vn 0.4065 0.9134 -0.0204
vn -0.3235 -0.8923 0.3148
vn -0.2595 -0.9495 -0.1764
vn -0.4351 -0.8809 -0.1862
vn -0.7845 -0.4810 0.3913
vn 0.3954 0.0000 -0.9185
vn -0.8320 0.0000 0.5548
vn -0.9980 0.0000 -0.0625
vn 0.9942 0.1063 -0.0150
vn 0.8916 0.4224 -0.1633
vn 0.9994 0.0000 0.0339
usemtl Material
s off
f 1/1/1 5/2/1 6/3/1
f 4/4/2 2/5/2 5/2/2
f 2/5/3 6/3/3 5/2/3
f 3/6/4 5/2/4 1/1/4
f 7/7/5 12/8/5 11/9/5
f 10/10/6 11/9/6 8/11/6
f 8/11/7 11/9/7 12/8/7
f 9/12/8 7/7/8 11/9/8
f 5/2/9 3/6/9 9/12/9 11/9/9
f 3/6/10 1/1/10 7/7/10 9/12/10
f 4/4/11 5/2/11 11/9/11 10/10/11
f 6/3/12 2/5/12 8/11/12 12/8/12
f 2/5/13 4/4/13 10/10/13 8/11/13
f 1/1/14 6/3/14 12/8/14 7/7/14
f 13/13/15 18/14/15 17/15/15
f 16/16/16 17/15/16 14/17/16
f 14/17/17 17/15/17 18/14/17
f 15/18/18 13/13/18 17/15/18
f 19/19/19 23/20/19 24/21/19
f 22/22/20 20/23/20 23/20/20
f 20/23/21 24/21/21 23/20/21
f 21/24/22 23/20/22 19/19/22
f 17/15/23 23/20/23 21/24/23 15/18/23
f 15/18/24 21/24/24 19/19/24 13/13/24
f 16/16/25 22/22/25 23/20/25 17/15/25
f 18/14/26 24/21/26 20/23/26 14/17/26
f 14/17/27 20/23/27 22/22/27 16/16/27
f 13/13/28 19/19/28 24/21/28 18/14/28
